<svg width="192" height="192" viewBox="0 0 192 192" fill="none" xmlns="http://www.w3.org/2000/svg">
  <!-- Background Circle -->
  <circle cx="96" cy="96" r="88" fill="#667eea"/>
  
  <!-- Network Icon -->
  <g transform="translate(48, 48)">
    <!-- Central Node -->
    <circle cx="48" cy="48" r="8" fill="white"/>
    
    <!-- Connection Lines -->
    <line x1="48" y1="48" x2="24" y2="24" stroke="white" stroke-width="3" stroke-linecap="round"/>
    <line x1="48" y1="48" x2="72" y2="24" stroke="white" stroke-width="3" stroke-linecap="round"/>
    <line x1="48" y1="48" x2="24" y2="72" stroke="white" stroke-width="3" stroke-linecap="round"/>
    <line x1="48" y1="48" x2="72" y2="72" stroke="white" stroke-width="3" stroke-linecap="round"/>
    
    <!-- Outer Nodes -->
    <circle cx="24" cy="24" r="6" fill="white"/>
    <circle cx="72" cy="24" r="6" fill="white"/>
    <circle cx="24" cy="72" r="6" fill="white"/>
    <circle cx="72" cy="72" r="6" fill="white"/>
    
    <!-- Signal Waves -->
    <path d="M 32 48 Q 40 40 48 48 Q 56 56 64 48" stroke="white" stroke-width="2" fill="none" stroke-linecap="round"/>
    <path d="M 28 48 Q 38 36 48 48 Q 58 60 68 48" stroke="white" stroke-width="2" fill="none" stroke-linecap="round" opacity="0.7"/>
  </g>
  
  <!-- Speed Indicator -->
  <g transform="translate(120, 120)">
    <path d="M 0 24 Q 12 12 24 24 Q 36 36 48 24" stroke="white" stroke-width="3" fill="none" stroke-linecap="round"/>
    <circle cx="48" cy="24" r="4" fill="white"/>
  </g>
</svg>
